<?xml version="1.0" standalone="no"?>
<!DOCTYPE svg PUBLIC "-//W3C//DTD SVG 20010904//EN"
 "http://www.w3.org/TR/2001/REC-SVG-20010904/DTD/svg10.dtd">
<svg version="1.0" xmlns="http://www.w3.org/2000/svg"
 width="200.000000pt" height="200.000000pt" viewBox="0 0 200.000000 200.000000"
 preserveAspectRatio="xMidYMid meet">

<g transform="translate(0.000000,200.000000) scale(0.100000,-0.100000)"
fill="#000000" stroke="none">
<path d="M653 1535 c-64 -28 -68 -47 -71 -375 -2 -182 1 -320 8 -360 23 -141
107 -251 238 -313 63 -30 73 -32 182 -32 85 0 129 5 166 18 115 40 188 110
221 211 24 75 32 734 9 789 -28 67 -123 99 -182 61 -43 -28 -54 -64 -54 -169
0 -96 0 -96 -22 -88 -36 12 -93 7 -122 -12 -25 -17 -28 -17 -60 0 -24 13 -47
17 -84 13 l-52 -5 0 92 c0 79 -3 97 -23 126 -38 57 -90 72 -154 44z m102 -60
c25 -24 25 -25 25 -220 l0 -195 -33 0 c-18 0 -49 -9 -70 -20 -20 -11 -39 -20
-42 -20 -10 0 -5 399 5 426 22 57 75 70 115 29z m585 5 c11 -11 22 -31 26 -44
3 -14 4 -177 2 -363 -5 -385 -9 -404 -83 -479 -65 -65 -136 -88 -270 -89 -99
0 -116 3 -167 27 -117 55 -190 154 -211 287 -9 62 -8 75 8 112 31 68 59 79
203 79 109 0 124 -2 142 -20 27 -27 28 -104 3 -116 -10 -5 -67 -11 -128 -14
-100 -4 -110 -7 -110 -24 0 -15 15 -23 72 -38 92 -25 148 -71 164 -134 10 -37
15 -44 36 -44 24 0 25 2 18 37 -9 50 -27 82 -64 118 l-31 29 42 16 c31 11 47
24 58 47 12 25 21 33 43 33 16 0 45 8 64 17 58 27 63 52 63 313 0 217 1 231
20 250 26 26 74 26 100 0z m-187 -272 c14 -16 17 -39 17 -115 0 -86 -2 -96
-25 -118 -40 -41 -67 -34 -103 28 -25 43 -31 147 -11 191 22 47 86 55 122 14z
m-201 5 c14 -13 18 -31 18 -85 l0 -68 -70 0 -70 0 0 65 c0 52 4 69 20 85 24
24 77 26 102 3z"/>
</g>
</svg>
